<?xml version="1.0" encoding="utf-8"?>
<!-- Svg Vector Icons : http://www.onlinewebfonts.com/icon -->
<!DOCTYPE svg PUBLIC "-//W3C//DTD SVG 1.1//EN" "http://www.w3.org/Graphics/SVG/1.1/DTD/svg11.dtd">
<svg version="1.1" xmlns="http://www.w3.org/2000/svg" xmlns:xlink="http://www.w3.org/1999/xlink" x="0px" y="0px" viewBox="0 0 1000 1000" enable-background="new 0 0 1000 1000" xml:space="preserve">
<metadata> Svg Vector Icons : http://www.onlinewebfonts.com/icon </metadata>
<g><path d="M313.3,826.9V390.1H173.1v436.8H313.3L313.3,826.9z M248.4,324c46.7,0,75.8-33.4,75.8-75.3c-0.8-42.6-29.1-75.3-75.1-75.3c-46,0-75.8,32.7-75.8,75.3c0,41.9,29.1,75.3,74,75.3H248.4L248.4,324z"/><path d="M665,380.1c-74.3,0-106.2,41.9-126.6,71v-60.8H398v436.5h140.4V578.2c0-12.8,1-25.5,4.8-34.5c10.2-25.5,33.2-51.8,72-51.8c50.8,0,71.2,39.1,71.2,96.2v238.7h140.4v-255C826.9,440.9,757.4,380.1,665,380.1z"/><path d="M911.6,10H93.7C49.1,10,10,42.2,10,86.3V906c0,44.4,39.1,84,83.7,84h817.6c44.9,0,78.6-39.8,78.6-84V86.3C990.3,42.2,956.3,10,911.6,10z M903.5,908.6c-2.8,0-799.3,0-803.9,0s-7.9-3.6-7.9-7.9c0-4.3,0-801.1,0-803.9s2.6-5.1,5.1-5.1s804.1,0,806.7,0s5.1,2.6,5.1,5.1c0,59.5,0,803.9,0,806.7C908.6,905.8,906.3,908.6,903.5,908.6z"/></g>
</svg>